<svg enable-background="new 0 0 403.25 353.688" height="224.53596" viewBox="0 0 256 224.53597" width="256" xmlns="http://www.w3.org/2000/svg"><path d="m0 0h256v224.53596h-256z" fill="#fff"/><g transform="matrix(.63484191 0 0 .63484191 0 .000007)"><g fill="#a90533"><path d="m69.974 251.962c-29.674-31.444-47.036-74.884-46.992-126.714-.041-45.837 14.361-85.236 39.12-115.216l-.04.015h-52.04v241.92h59.915z"/><path d="m344.046 251.982c12.783-13.691 24.237-29.815 34.616-48.255l-57.6-28.8c-20.229 32.887-49.812 63.158-90.72 63.36-59.537-.202-82.929-51.112-82.8-116.64h222.48c.297-7.398.297-10.838 0-14.399 1.452-38.985-8.88-71.754-27.675-97.273l-.097.073h50.092v241.92h-48.405z"/><path d="m151.143 65.487c2.463-29.668 25.854-49.62 53.28-49.68 27.613.06 47.564 20.012 48.24 49.68z"/></g><path d="m41.703 342.688v-10.081h-19.44v-15.839h18.719v-10.08h-18.719v-13.681h19.44v-10.079h-30.96v59.76z"/><path d="m94.263 317.487c7.718-1.146 11.956-8.794 12.24-16.56-.284-12.705-8.52-17.962-20.16-18h-15.84v59.76h11.52v-23.76l14.4 23.76h14.4zm-12.241-25.199h1.44c6.285.236 11.002 1.67 10.8 9.36.202 7.046-4.355 8.958-10.8 8.64h-1.44z"/><path d="m163.382 332.607h-16.56v-49.679h-11.519v59.76h28.079z"/><path d="m222.422 330.447 5.04 12.24h12.24l-22.32-61.2h-9.36l-23.76 61.2h12.239l5.041-12.24zm-2.88-9.359h-14.4l6.48-22.32z"/><path d="m313.862 344.127v-61.199h-12.239v40.32l-31.681-41.761h-8.639v61.201h12.239v-40.32l31.681 41.759z"/><path d="m364.263 311.007v9.36h12.96c-.27 7.522-6.426 13.895-13.68 13.68-11.456.215-17.133-10.856-17.28-20.88.147-9.89 5.744-21.44 17.28-21.6 6.054.159 11.172 4.301 13.68 9.36l10.08-5.04c-4.433-9.338-13.388-14.516-23.76-14.4-17.853-.115-29.286 14.621-29.52 31.68.234 16.634 11.348 31.45 28.8 31.68 18.848-.23 27.563-15.285 27.36-32.4v-1.44z"/></g></svg>